<mxfile host="app.diagrams.net" agent="Mozilla/5.0 (Macintosh; Intel Mac OS X 10_15_7) AppleWebKit/537.36 (KHTML, like Gecko) Chrome/131.0.0.0 Safari/537.36" version="25.0.3">
  <diagram name="Page-1" id="pI2AHJA0L0rdgh6b-DMa">
    <mxGraphModel dx="954" dy="605" grid="1" gridSize="10" guides="1" tooltips="1" connect="1" arrows="1" fold="1" page="1" pageScale="1" pageWidth="827" pageHeight="1169" math="0" shadow="0">
      <root>
        <mxCell id="0" />
        <mxCell id="1" parent="0" />
        <mxCell id="GxSVeovbJsf6JKnXzK4b-1" value="data_transformer" style="rounded=1;whiteSpace=wrap;html=1;fillColor=#dae8fc;dashed=1;dashPattern=8 8;fontFamily=Verdana;labelPosition=center;verticalLabelPosition=bottom;align=center;verticalAlign=top;fontStyle=1;strokeColor=#6c8ebf;" parent="1" vertex="1">
          <mxGeometry x="540" y="250" width="200" height="120" as="geometry" />
        </mxCell>
        <mxCell id="hHuz27fxEMN4EqWnwKQv-28" value="data_loader" style="rounded=1;whiteSpace=wrap;html=1;fillColor=#dae8fc;dashed=1;dashPattern=8 8;fontFamily=Verdana;labelPosition=center;verticalLabelPosition=bottom;align=center;verticalAlign=top;fontStyle=1;strokeColor=#6c8ebf;" parent="1" vertex="1">
          <mxGeometry x="270" y="250" width="200" height="120" as="geometry" />
        </mxCell>
        <mxCell id="hHuz27fxEMN4EqWnwKQv-27" value="db" style="rounded=1;whiteSpace=wrap;html=1;fillColor=#dae8fc;dashed=1;dashPattern=8 8;fontFamily=Verdana;labelPosition=center;verticalLabelPosition=bottom;align=center;verticalAlign=top;fontStyle=1;strokeColor=#6c8ebf;fontSize=12;" parent="1" vertex="1">
          <mxGeometry x="420" y="90" width="180" height="130" as="geometry" />
        </mxCell>
        <mxCell id="hHuz27fxEMN4EqWnwKQv-6" style="edgeStyle=orthogonalEdgeStyle;rounded=0;orthogonalLoop=1;jettySize=auto;html=1;exitX=1;exitY=0.5;exitDx=0;exitDy=0;strokeWidth=3;endArrow=open;endFill=0;strokeColor=#808080;entryX=0;entryY=0.5;entryDx=0;entryDy=0;entryPerimeter=0;" parent="1" source="hHuz27fxEMN4EqWnwKQv-4" target="hHuz27fxEMN4EqWnwKQv-10" edge="1">
          <mxGeometry relative="1" as="geometry">
            <mxPoint x="230" y="290" as="targetPoint" />
          </mxGeometry>
        </mxCell>
        <mxCell id="hHuz27fxEMN4EqWnwKQv-4" value="New York Times API&amp;nbsp;&lt;br&gt;(Archive Search)" style="editableCssRules=.*;html=1;shape=image;verticalLabelPosition=bottom;labelBackgroundColor=none;verticalAlign=top;aspect=fixed;imageAspect=0;image=data:image/svg+xml,PHN2ZyB4bWxucz0iaHR0cDovL3d3dy53My5vcmcvMjAwMC9zdmciIHhtbG5zOnY9Imh0dHBzOi8vdmVjdGEuaW8vbmFubyIgd2lkdGg9IjM3NS41MDQwMTg5MTYxMTE2IiBoZWlnaHQ9IjM3Ni40MTEwMTA4NDIxNTg5MyIgdmlld0JveD0iMCAwIDk5LjM1MjAwNTAwNDg4MjgxIDk5LjU5MjAwMjg2ODY1MjM0Ij4mI3hhOzxzdHlsZSB0eXBlPSJ0ZXh0L2NzcyI+JiN4YTsJLnN0MHtmaWxsOiM2NjlkZjY7fSYjeGE7CS5zdDF7ZmlsbDojYWVjYmZhO30mI3hhOzwvc3R5bGU+JiN4YTsJPHBhdGggY2xhc3M9InN0MCIgZD0iTTcwLjc2MyA0OS43ODZhMzAuOTkgMzAuOTkgMCAwIDAtNC40OTkuNDQydjI3LjA3OGgxMXYtMjYuOTdsLTIuNjg2LS4zOTFjLTEuMjc5LS4xMzEtMi41NC0uMTg2LTMuODE1LS4xNTl6bS0xNS41ODcgMy43NjZsLTQuNDcxIDEuODcxLS4wMTYuMDA2LS4wMTYuMDA4LTYuNDk4IDIuNTIydjMwLjg4NGgxMXptMzMuMTc2LjEwNHY0NS45MzZoMTFWNTguMTk4Yy00LjEzOC0xLjc5OC03Ljc4My0zLjMyNS0xMS00LjU0MXpNMCA1My43Njh2MjMuNTM5aDExVjU4LjAxMmMtMy40MzYtMS4xMjYtNy4wNTItMi41NTItMTEtNC4yNDR6bTMzLjA4OCA2Ljg2Yy0zLjcwNS40NzItNy4zMjUuNDc4LTExIC4wMDd2MzguOTU3aDExeiIvPiYjeGE7CTxwYXRoIGNsYXNzPSJzdDEiIGQ9Ik0wIDB2NDEuNzM0YzQuMTA1IDEuODE5IDcuNzQgMy4zNSAxMSA0LjU3MlYwem02Ni4yNjQgMHYzOS4xNTRjMy4xNzgtLjQxMiA2LjI4Mi0uNDczIDkuNDM0LS4xNS41MjMuMDUzIDEuMDQ0LjExOSAxLjU2Ni4xOTFWMHpNNDQuMTc2IDExLjUzOHYzNC42OTRsMi4xMzctLjg5NWMzLjE0LTEuMzc5IDYuMDY5LTIuNTM5IDguODYzLTMuNDl2LTMwLjMxek0yMi4wODggMjIuMjg1djI3LjIzYy4wMTEuMDAyLjAyMi4wMDQuMDMzLjAwNiAzLjc3NC42NCA3LjIxNS43MDcgMTAuOTY3LjA4VjIyLjI4NXptNjYuMjY0IDB2MTkuNjQxYzMuMzg4IDEuMTQ0IDcuMDE1IDIuNTk3IDExIDQuMjlWMjIuMjg1eiIvPiYjeGE7PC9zdmc+;fontFamily=Verdana;fontStyle=0" parent="1" vertex="1">
          <mxGeometry x="130" y="270" width="40" height="40" as="geometry" />
        </mxCell>
        <mxCell id="hHuz27fxEMN4EqWnwKQv-10" value="Python" style="outlineConnect=0;dashed=0;verticalLabelPosition=bottom;verticalAlign=top;align=center;html=1;shape=mxgraph.aws3.android;fillColor=#FFD44F;gradientColor=none;fontStyle=0;fontFamily=Verdana;" parent="1" vertex="1">
          <mxGeometry x="320" y="260.12" width="53.5" height="59.75" as="geometry" />
        </mxCell>
        <mxCell id="hHuz27fxEMN4EqWnwKQv-14" value="Extract" style="text;html=1;align=center;verticalAlign=middle;whiteSpace=wrap;rounded=0;fontFamily=Verdana;fontColor=#A680B8;fontStyle=1;fontSize=10;" parent="1" vertex="1">
          <mxGeometry x="200" y="255.88" width="60" height="30" as="geometry" />
        </mxCell>
        <mxCell id="hHuz27fxEMN4EqWnwKQv-15" value="Load" style="text;html=1;align=center;verticalAlign=middle;whiteSpace=wrap;rounded=0;fontFamily=Verdana;fontColor=#A680B8;fontStyle=1;fontSize=10;" parent="1" vertex="1">
          <mxGeometry x="390" y="255.88" width="60" height="30" as="geometry" />
        </mxCell>
        <mxCell id="hHuz27fxEMN4EqWnwKQv-17" value="Transform" style="text;html=1;align=center;verticalAlign=middle;whiteSpace=wrap;rounded=0;fontFamily=Verdana;fontColor=#A680B8;fontStyle=1;fontSize=10;" parent="1" vertex="1">
          <mxGeometry x="560" y="255.88" width="60" height="30" as="geometry" />
        </mxCell>
        <mxCell id="hHuz27fxEMN4EqWnwKQv-18" value="" style="shape=image;verticalLabelPosition=bottom;labelBackgroundColor=default;verticalAlign=top;aspect=fixed;imageAspect=0;image=https://miro.medium.com/v2/resize:fit:1200/1*bs4QsEzWBpQMfwP2cNfrWw.png;fontStyle=0" parent="1" vertex="1">
          <mxGeometry x="600" y="280" width="100" height="50" as="geometry" />
        </mxCell>
        <mxCell id="hHuz27fxEMN4EqWnwKQv-25" value="Postgres" style="shape=image;verticalLabelPosition=bottom;labelBackgroundColor=none;verticalAlign=top;aspect=fixed;imageAspect=0;image=https://upload.wikimedia.org/wikipedia/commons/thumb/2/29/Postgresql_elephant.svg/1200px-Postgresql_elephant.svg.png;fontFamily=Verdana;" parent="1" vertex="1">
          <mxGeometry x="450" y="110" width="74" height="76.29" as="geometry" />
        </mxCell>
        <mxCell id="hHuz27fxEMN4EqWnwKQv-26" style="edgeStyle=orthogonalEdgeStyle;rounded=0;orthogonalLoop=1;jettySize=auto;html=1;strokeWidth=3;endArrow=open;endFill=0;strokeColor=#808080;entryX=0;entryY=0.5;entryDx=0;entryDy=0;" parent="1" target="hHuz27fxEMN4EqWnwKQv-27" edge="1">
          <mxGeometry relative="1" as="geometry">
            <mxPoint x="360" y="290" as="sourcePoint" />
            <mxPoint x="453.5" y="289.8" as="targetPoint" />
          </mxGeometry>
        </mxCell>
        <mxCell id="hHuz27fxEMN4EqWnwKQv-31" style="edgeStyle=orthogonalEdgeStyle;rounded=0;orthogonalLoop=1;jettySize=auto;html=1;strokeWidth=3;endArrow=open;endFill=0;strokeColor=#808080;entryX=0.75;entryY=0;entryDx=0;entryDy=0;exitX=1;exitY=0.5;exitDx=0;exitDy=0;" parent="1" source="hHuz27fxEMN4EqWnwKQv-27" target="hHuz27fxEMN4EqWnwKQv-18" edge="1">
          <mxGeometry relative="1" as="geometry">
            <mxPoint x="370" y="300" as="sourcePoint" />
            <mxPoint x="434" y="165" as="targetPoint" />
          </mxGeometry>
        </mxCell>
        <mxCell id="hHuz27fxEMN4EqWnwKQv-32" style="edgeStyle=orthogonalEdgeStyle;rounded=0;orthogonalLoop=1;jettySize=auto;html=1;strokeWidth=3;endArrow=open;endFill=0;strokeColor=#808080;entryX=1;entryY=0.75;entryDx=0;entryDy=0;exitX=0.25;exitY=0;exitDx=0;exitDy=0;" parent="1" source="hHuz27fxEMN4EqWnwKQv-18" target="hHuz27fxEMN4EqWnwKQv-27" edge="1">
          <mxGeometry relative="1" as="geometry">
            <mxPoint x="574" y="165" as="sourcePoint" />
            <mxPoint x="635" y="290" as="targetPoint" />
          </mxGeometry>
        </mxCell>
        <mxCell id="GxSVeovbJsf6JKnXzK4b-3" value="" style="shape=image;verticalLabelPosition=bottom;labelBackgroundColor=default;verticalAlign=top;aspect=fixed;imageAspect=0;image=https://upload.wikimedia.org/wikipedia/commons/thumb/d/de/AirflowLogo.png/800px-AirflowLogo.png;" parent="1" vertex="1">
          <mxGeometry x="450" y="410" width="120" height="46.35" as="geometry" />
        </mxCell>
        <mxCell id="GxSVeovbJsf6JKnXzK4b-5" value="" style="shape=image;verticalLabelPosition=bottom;labelBackgroundColor=default;verticalAlign=top;aspect=fixed;imageAspect=0;image=https://miro.medium.com/v2/resize:fit:1400/1*bZP17SmwRZihfAYDr5KBFg.png;" parent="1" vertex="1">
          <mxGeometry x="400.5" y="319.87" width="69.5" height="39.1" as="geometry" />
        </mxCell>
        <mxCell id="GxSVeovbJsf6JKnXzK4b-6" value="" style="shape=image;verticalLabelPosition=bottom;labelBackgroundColor=default;verticalAlign=top;aspect=fixed;imageAspect=0;image=https://miro.medium.com/v2/resize:fit:1400/1*bZP17SmwRZihfAYDr5KBFg.png;" parent="1" vertex="1">
          <mxGeometry x="670" y="319.87" width="69.5" height="39.1" as="geometry" />
        </mxCell>
        <mxCell id="GxSVeovbJsf6JKnXzK4b-7" value="" style="shape=image;verticalLabelPosition=bottom;labelBackgroundColor=default;verticalAlign=top;aspect=fixed;imageAspect=0;image=https://miro.medium.com/v2/resize:fit:1400/1*bZP17SmwRZihfAYDr5KBFg.png;" parent="1" vertex="1">
          <mxGeometry x="530.5" y="170" width="69.5" height="39.1" as="geometry" />
        </mxCell>
      </root>
    </mxGraphModel>
  </diagram>
</mxfile>
